<?xml version="1.0" standalone="no"?>
<!DOCTYPE svg PUBLIC "-//W3C//DTD SVG 20010904//EN"
 "http://www.w3.org/TR/2001/REC-SVG-20010904/DTD/svg10.dtd">
<svg version="1.0" xmlns="http://www.w3.org/2000/svg"
 width="786.000000pt" height="384.000000pt" viewBox="0 0 786.000000 384.000000"
 preserveAspectRatio="xMidYMid meet">

<g transform="translate(0.000000,384.000000) scale(0.100000,-0.100000)"
fill="#000000" stroke="none">
<path d="M3530 3824 c-1021 -29 -1322 -115 -2005 -567 -141 -93 -254 -186
-474 -389 -136 -125 -201 -179 -224 -184 -92 -19 -137 -66 -159 -164 -9 -41
-24 -70 -63 -115 -141 -168 -168 -223 -195 -391 -11 -71 -27 -146 -35 -167
-10 -25 -15 -76 -15 -157 l0 -119 -30 -21 c-57 -40 -60 -57 -60 -303 0 -237
12 -401 34 -464 20 -59 60 -77 170 -78 88 0 93 -1 156 -40 58 -35 74 -40 150
-46 47 -3 105 -13 129 -22 24 -10 69 -17 100 -17 31 0 61 -4 67 -8 6 -4 22
-27 34 -52 13 -25 33 -59 46 -76 13 -17 24 -33 24 -36 0 -3 -60 -8 -132 -12
-514 -26 -886 -72 -919 -113 -40 -47 93 -71 711 -127 918 -84 1434 -99 2070
-59 509 33 496 32 595 38 50 3 311 19 580 35 1093 66 1712 102 1940 110 878
34 1287 67 1460 121 36 11 69 27 72 36 10 26 -10 66 -37 74 -14 3 -139 19
-277 35 -139 15 -253 30 -253 33 1 20 25 33 80 42 100 16 102 17 115 120 l6
45 122 27 c133 29 252 80 286 123 11 14 30 51 42 82 20 51 23 78 25 247 3 212
8 277 24 349 15 67 -6 592 -24 621 -7 11 -16 54 -20 95 -12 134 -37 314 -52
375 -55 221 -118 410 -180 540 -36 77 -77 168 -89 203 -20 52 -36 74 -100 135
-43 39 -93 80 -112 90 -112 59 -577 91 -2003 137 -317 10 -1379 20 -1580 14z
m1655 -89 c1336 -42 1833 -76 1913 -134 32 -23 142 -136 142 -146 0 -3 40 -93
90 -199 74 -160 99 -228 149 -402 53 -187 62 -233 82 -417 22 -195 22 -207 6
-225 -14 -15 -17 -38 -17 -118 0 -54 3 -129 7 -166 6 -66 7 -68 33 -68 27 0
27 -1 33 -87 9 -118 0 -157 -36 -161 -23 -3 -27 -8 -27 -36 0 -25 5 -35 20
-39 17 -4 20 -13 19 -64 0 -32 -4 -94 -8 -138 -4 -44 -4 -84 1 -89 14 -17 9
-98 -11 -169 -24 -88 -54 -119 -152 -157 -74 -28 -297 -75 -308 -65 -2 3 -11
65 -18 137 -7 72 -18 147 -24 167 -7 20 -14 49 -16 65 -5 49 -70 170 -119 225
-96 107 -219 136 -336 78 -87 -43 -166 -136 -232 -271 -42 -89 -61 -147 -96
-293 l-44 -182 -60 -6 c-75 -7 -827 -64 -1386 -105 -228 -16 -530 -39 -670
-50 -140 -11 -260 -20 -266 -20 -7 0 -14 46 -18 133 -9 169 -22 264 -48 352
-46 156 -132 271 -246 327 -61 30 -75 33 -157 33 -140 -1 -223 -42 -320 -157
-79 -93 -149 -246 -180 -393 -10 -44 -25 -117 -35 -163 -10 -46 -20 -86 -24
-89 -9 -10 -645 -9 -869 1 -187 8 -199 10 -234 33 -35 24 -50 26 -263 39 -124
7 -344 20 -490 29 -146 8 -294 20 -330 25 -36 5 -105 10 -155 10 -49 0 -96 4
-104 9 -7 5 -17 28 -23 52 -11 53 -23 576 -14 613 8 34 77 70 120 63 29 -5 33
-1 58 44 30 53 61 59 57 10 -5 -60 -13 -57 174 -70 292 -20 570 -31 607 -25
19 4 58 23 85 43 l50 37 106 -4 106 -4 6 -55 c3 -30 7 -57 9 -58 2 -2 154 2
338 8 184 7 314 13 288 15 -27 2 -48 7 -48 13 0 5 -46 9 -105 9 l-105 0 0 126
c0 69 5 134 10 145 10 17 23 19 154 19 115 0 146 -3 156 -15 9 -11 11 -55 8
-160 -4 -155 -3 -158 46 -139 23 9 20 23 -4 17 -19 -5 -20 0 -20 156 0 135 2
161 15 161 12 0 15 -23 18 -127 l3 -128 2 138 2 138 -282 -6 c-315 -6 -341 -9
-398 -31 -54 -22 -105 -100 -101 -158 l2 -41 -178 6 c-98 4 -329 12 -513 19
-184 6 -364 15 -400 18 l-65 7 0 93 c0 99 -4 108 -69 147 -15 9 -15 19 3 130
10 68 27 138 39 160 126 244 722 833 1072 1059 300 195 414 258 605 336 297
121 526 164 1020 189 271 14 1465 12 1970 -4z m-4664 -2031 c-2 -68 -9 -110
-21 -133 -21 -41 -35 -27 -32 34 2 29 0 36 -8 25 -8 -13 -10 -13 -10 2 0 9 -3
23 -6 32 -3 9 -1 16 5 16 6 0 12 -8 12 -17 1 -10 5 9 10 41 9 63 5 84 -9 46
-5 -15 -11 -19 -16 -12 -10 17 4 62 20 62 8 0 14 4 14 10 0 6 9 6 23 1 21 -8
22 -12 18 -107z m1537 34 c7 -7 12 -26 11 -42 0 -27 -1 -28 -9 -11 -4 12 -15
27 -24 34 -9 7 -16 17 -16 22 0 13 24 11 38 -3z m-204 -14 c5 -13 10 -13 36 1
28 15 30 14 30 -4 0 -10 7 -24 16 -32 13 -11 14 -9 9 13 -4 16 -2 29 6 33 9 6
11 2 7 -12 -3 -11 1 -28 8 -38 11 -15 15 -16 28 -3 9 10 11 20 5 29 -18 29 -8
32 21 4 35 -33 39 -49 10 -40 -18 6 -19 4 -10 -19 5 -14 7 -26 5 -26 -17 0
-202 54 -211 61 -17 14 -37 -16 -29 -42 5 -15 9 -18 15 -9 11 18 200 -1 200
-20 0 -4 -11 -10 -25 -12 -14 -3 -25 -2 -25 2 0 5 -33 8 -74 8 l-74 1 11 -37
c6 -20 12 -38 13 -40 2 -3 47 8 127 32 l47 15 0 -26 c0 -18 -4 -24 -15 -19 -8
3 -22 3 -31 -1 -13 -5 -13 -8 -2 -15 9 -7 8 -8 -6 -4 -10 4 -53 -7 -97 -24
-43 -16 -80 -30 -82 -30 -2 0 -7 41 -11 90 -7 90 -6 91 24 133 31 44 64 57 74
31z m136 -27 c0 -5 -4 -5 -10 -2 -5 3 -10 14 -10 23 0 15 2 15 10 2 5 -8 10
-19 10 -23z m79 -140 c1 -30 -3 -39 -22 -46 -13 -5 -29 -16 -36 -25 -14 -16
-45 -23 -39 -8 2 5 17 37 35 73 18 35 35 73 39 84 6 18 8 16 14 -10 4 -16 8
-47 9 -68z m-151 -60 c10 4 13 2 9 -3 -4 -4 -25 -9 -45 -11 -37 -2 -37 -2 -12
12 14 7 26 10 28 5 2 -5 11 -6 20 -3z m142 -12 c0 -8 -7 -15 -15 -15 -16 0
-20 12 -8 23 11 12 23 8 23 -8z m4718 -344 c28 -21 51 -51 74 -98 31 -63 33
-74 33 -168 0 -89 -3 -107 -29 -163 -86 -187 -264 -183 -349 7 -29 65 -35 201
-13 273 37 115 104 178 191 178 42 0 60 -6 93 -29z m-3373 -120 c56 -25 118
-97 146 -167 33 -84 33 -224 -1 -309 -45 -116 -162 -199 -251 -180 -86 19
-142 68 -188 165 -23 49 -26 67 -26 170 0 110 1 118 33 182 66 134 179 189
287 139z m2729 -343 c3 -13 2 -26 -2 -29 -4 -4 -189 -9 -412 -11 -276 -4 -375
-2 -310 4 89 8 650 54 696 57 15 1 24 -6 28 -21z m-3446 -123 c6 -2 12 -17 12
-34 0 -28 -2 -29 -62 -35 -90 -8 -628 -29 -634 -24 -2 3 8 27 23 54 l26 49
311 -3 c171 -2 317 -5 324 -7z"/>
<path d="M1586 3139 c-126 -17 -131 -20 -496 -368 -102 -97 -229 -226 -282
-287 l-97 -112 142 -6 c208 -10 1007 -26 1261 -26 265 0 252 -5 362 148 135
188 315 416 438 555 32 37 56 73 53 80 -3 8 -27 17 -53 21 -70 9 -1248 5
-1328 -5z"/>
<path d="M4082 3091 c-18 -5 -36 -11 -39 -14 -14 -15 92 -322 206 -596 68
-163 97 -201 178 -231 49 -18 78 -20 361 -20 169 0 501 5 737 10 237 6 757 17
1157 24 560 10 731 16 743 26 20 16 20 91 -1 252 -42 330 -100 498 -179 520
-16 4 -514 12 -1105 17 -591 6 -1289 13 -1550 15 -261 3 -490 1 -508 -3z"/>
<path d="M3249 3080 c-130 -22 -240 -120 -413 -372 -46 -67 -75 -99 -95 -106
-24 -9 -30 -19 -41 -64 -6 -29 -27 -75 -45 -103 -42 -63 -55 -96 -55 -144 0
-90 87 -84 943 65 181 31 220 41 229 57 5 10 19 161 30 334 15 243 17 318 7
329 -9 11 -56 14 -263 13 -138 -1 -272 -5 -297 -9z"/>
<path d="M4231 2191 c-15 -26 -14 -134 1 -166 8 -18 19 -25 40 -25 l29 0 -3
103 -3 102 -27 3 c-18 2 -30 -3 -37 -17z"/>
<path d="M3707 2158 c-38 -8 -53 -17 -67 -41 -11 -17 -17 -34 -14 -38 6 -10
194 1 217 13 11 6 17 20 17 43 l0 35 -52 -1 c-29 -1 -75 -6 -101 -11z"/>
<path d="M600 1768 c0 -20 6 -40 13 -46 15 -12 538 -42 731 -42 l139 0 48 37
c27 20 49 40 49 44 0 3 -89 9 -197 12 -197 5 -198 5 -252 -21 -76 -35 -141
-32 -199 9 -42 31 -46 31 -188 37 l-144 5 0 -35z"/>
<path d="M2183 1723 c-22 -4 -23 -9 -21 -76 l2 -72 3 68 c4 69 10 78 37 51 11
-11 15 -29 13 -58 -4 -48 -36 -104 -48 -85 -5 8 -8 4 -11 -12 -2 -19 -9 -24
-30 -24 -16 1 -28 -3 -28 -7 0 -4 38 -8 85 -8 92 0 89 -2 100 62 4 28 11 37
28 40 30 4 30 42 0 46 -19 3 -23 10 -23 43 l0 39 -42 -1 c-24 -1 -53 -4 -65
-6z m97 -37 c-1 -21 -1 -21 -15 -2 -19 25 -19 37 0 30 8 -4 15 -16 15 -28z
m-26 -18 c-4 -6 -10 -5 -15 3 -14 22 -10 33 6 19 8 -7 12 -17 9 -22z m10 -39
c-3 -5 -10 -7 -15 -3 -5 3 -7 10 -3 15 3 5 10 7 15 3 5 -3 7 -10 3 -15z m-18
-45 c-2 -14 -9 -29 -16 -34 -8 -5 -9 -9 -1 -14 6 -4 11 -2 11 3 0 6 7 11 16
11 9 0 14 -7 12 -17 -2 -14 -15 -19 -48 -21 -40 -2 -43 -1 -27 11 9 8 17 19
17 26 0 6 5 11 10 11 6 0 10 11 10 25 0 14 4 25 9 25 5 0 8 -12 7 -26z"/>
<path d="M400 1187 c0 -59 5 -99 13 -110 10 -13 54 -19 272 -32 399 -23 597
-35 744 -46 132 -9 135 -8 159 14 23 21 24 26 18 106 -3 46 -8 87 -11 91 -2 4
-60 10 -127 14 -68 3 -314 17 -548 31 -234 14 -446 25 -472 25 l-48 0 0 -93z"/>
<path d="M1948 1059 c-10 -5 -18 -19 -18 -29 0 -11 -5 -40 -12 -65 -11 -40
-10 -50 7 -81 28 -53 90 -104 124 -104 60 0 61 3 61 120 0 59 -3 122 -6 139
l-6 31 -67 0 c-36 0 -74 -5 -83 -11z m66 -75 c37 -36 28 -100 -17 -128 -15 -9
-23 -6 -43 17 -26 31 -30 57 -13 90 21 40 47 47 73 21z"/>
<path d="M415 841 c-4 -7 -4 -15 -1 -18 12 -12 757 -71 1111 -88 120 -6 128
-5 110 10 -33 26 -81 33 -330 45 -132 6 -339 20 -460 31 -337 30 -421 34 -430
20z"/>
<path d="M1890 1710 c0 -5 5 -10 10 -10 6 0 10 5 10 10 0 6 -4 10 -10 10 -5 0
-10 -4 -10 -10z"/>
<path d="M6627 1123 c-8 -14 33 -93 48 -93 19 0 35 32 35 69 0 29 -2 31 -39
31 -22 0 -42 -3 -44 -7z"/>
<path d="M6772 1016 c-16 -45 -7 -66 29 -66 16 0 29 4 29 10 0 17 -32 90 -39
90 -4 0 -12 -15 -19 -34z"/>
<path d="M6516 989 c-21 -71 -21 -71 21 -67 31 2 39 8 47 31 8 22 6 32 -10 54
-31 42 -42 39 -58 -18z"/>
<path d="M6771 823 c-6 -12 -3 -29 11 -58 l21 -40 13 35 c21 58 18 80 -11 80
-13 0 -28 -8 -34 -17z"/>
<path d="M6516 801 c-8 -13 29 -101 42 -101 4 0 16 16 25 35 17 35 14 65 -7
65 -6 0 -21 3 -32 6 -12 3 -25 1 -28 -5z"/>
<path d="M6656 685 c-17 -52 -9 -63 39 -51 27 7 34 41 15 77 -17 31 -37 22
-54 -26z"/>
<path d="M3260 975 c0 -9 9 -34 21 -56 26 -53 60 -52 73 2 14 56 4 69 -49 69
-34 0 -45 -4 -45 -15z"/>
<path d="M3439 873 c-5 -16 -12 -34 -14 -41 -3 -7 -1 -21 5 -31 11 -22 70 -17
70 6 0 16 -38 93 -45 93 -3 0 -10 -12 -16 -27z"/>
<path d="M3136 862 c-8 -16 -18 -48 -22 -71 l-7 -41 36 0 c24 0 43 7 57 22 24
27 19 52 -20 92 l-28 29 -16 -31z"/>
<path d="M3438 643 c-16 -15 -16 -19 4 -55 12 -21 25 -38 29 -38 7 0 39 84 39
102 0 15 -55 8 -72 -9z"/>
<path d="M3138 622 c-10 -2 -18 -10 -18 -18 0 -17 36 -90 48 -98 4 -2 18 11
31 30 40 58 10 100 -61 86z"/>
<path d="M3296 493 c-21 -61 -21 -63 13 -63 61 0 76 26 49 85 -18 40 -44 32
-62 -22z"/>
</g>
</svg>
