<?xml version="1.0" standalone="no"?>
<!DOCTYPE svg PUBLIC "-//W3C//DTD SVG 20010904//EN"
 "http://www.w3.org/TR/2001/REC-SVG-20010904/DTD/svg10.dtd">
<svg version="1.0" xmlns="http://www.w3.org/2000/svg"
 width="3625.000000pt" height="3625.000000pt" viewBox="0 0 3625.000000 3625.000000"
 preserveAspectRatio="xMidYMid meet">

<g transform="translate(0.000000,3625.000000) scale(0.100000,-0.100000)"
fill="#404040" stroke="none">
<path d="M5235 33739 c-588 -50 -1155 -276 -1625 -649 -134 -106 -364 -336
-468 -468 -313 -395 -518 -853 -601 -1343 -41 -236 -42 -338 -39 -1999 4
-1758 1 -1651 68 -1959 91 -414 306 -861 577 -1200 104 -130 334 -360 463
-461 417 -330 914 -548 1424 -625 230 -34 361 -36 1936 -33 1661 5 1610 3
1865 53 476 94 942 311 1315 612 556 448 939 1101 1060 1806 39 234 41 338 38
1997 -4 1452 -6 1605 -21 1710 -54 350 -137 618 -288 920 -154 308 -314 528
-568 780 -506 504 -1156 802 -1875 860 -156 12 -3112 11 -3261 -1z m3322
-1327 c614 -118 1106 -536 1292 -1097 46 -140 66 -231 80 -374 15 -142 15
-2990 0 -3132 -20 -206 -68 -376 -154 -554 -231 -477 -676 -813 -1216 -917
-113 -21 -122 -22 -1579 -25 -1524 -4 -1655 -2 -1838 37 -514 109 -943 442
-1167 905 -86 178 -134 348 -154 554 -15 138 -15 2983 -1 3136 12 125 55 312
100 430 222 577 778 994 1405 1054 50 5 772 8 1605 7 1505 -2 1516 -2 1627
-24z"/>
<path d="M5847 31234 c-403 -73 -707 -352 -820 -752 -22 -76 -22 -85 -25
-1066 -3 -1088 -3 -1078 58 -1248 110 -305 378 -545 705 -636 l100 -27 1010 0
1010 0 99 27 c371 103 641 373 739 742 22 81 22 86 22 1101 0 1015 0 1020 -22
1101 -50 188 -134 335 -268 470 -132 133 -282 220 -473 272 l-97 27 -980 2
c-814 1 -993 -1 -1058 -13z"/>
<path d="M12826 33739 c-115 -28 -233 -129 -289 -246 l-32 -68 0 -1551 0
-1550 37 -75 c46 -93 122 -168 215 -212 l68 -32 462 -3 462 -3 3 -463 3 -462
37 -75 c46 -93 122 -168 215 -212 l68 -32 1087 -3 1088 -2 2 -1088 3 -1088 37
-75 c46 -93 122 -168 215 -212 l68 -32 462 -3 462 -3 3 -463 3 -462 37 -75
c46 -93 122 -168 215 -212 l68 -32 300 0 300 0 68 32 c93 44 169 119 215 212
l37 75 3 463 3 463 624 0 624 0 3 -463 3 -463 37 -75 c46 -93 122 -168 215
-212 l68 -32 301 0 300 0 75 37 c93 46 168 122 212 215 l32 68 0 1550 0 1550
-32 68 c-44 93 -119 169 -212 215 l-75 37 -463 3 -463 3 0 624 0 625 1250 0
1250 0 2 -2963 3 -2963 37 -75 c46 -93 122 -168 215 -212 l68 -32 300 0 300 0
68 32 c93 44 169 119 215 212 l37 75 0 4051 0 4051 -37 75 c-46 93 -122 168
-215 212 l-68 32 -301 0 -300 0 -75 -37 c-93 -46 -168 -122 -212 -215 l-32
-68 -3 -462 -3 -463 -624 0 -624 0 -3 463 -3 462 -32 68 c-44 93 -119 169
-212 215 l-75 37 -300 0 -301 0 -68 -32 c-93 -44 -169 -119 -215 -212 l-37
-75 -3 -462 -3 -463 -462 -3 -462 -3 -68 -32 c-93 -44 -169 -119 -215 -212
l-37 -75 -3 -463 -3 -463 -1249 0 -1250 0 -2 1088 -3 1087 -32 68 c-44 93
-119 169 -212 215 l-75 37 -1088 3 -1087 2 -3 463 -3 463 -37 75 c-46 93 -122
168 -215 212 l-68 32 -280 2 c-154 1 -297 -3 -319 -8z m5924 -5614 l0 -625
-625 0 -625 0 0 625 0 625 625 0 625 0 0 -625z"/>
<path d="M17826 33739 c-114 -27 -233 -129 -289 -246 l-32 -68 0 -925 0 -925
32 -68 c44 -93 119 -169 212 -215 l75 -37 301 0 301 0 75 37 c93 46 168 122
212 215 l32 68 3 462 3 462 462 3 462 3 68 32 c93 44 169 119 215 212 l37 75
0 301 0 301 -37 75 c-46 93 -122 168 -215 212 l-68 32 -905 2 c-526 1 -921 -3
-944 -8z"/>
<path d="M27735 33739 c-588 -50 -1155 -276 -1625 -649 -134 -106 -364 -336
-468 -468 -313 -395 -518 -853 -601 -1343 -41 -236 -42 -338 -39 -1999 4
-1758 1 -1651 68 -1959 91 -414 306 -861 577 -1200 104 -130 334 -360 463
-461 417 -330 914 -548 1424 -625 230 -34 361 -36 1936 -33 1661 5 1610 3
1865 53 476 94 942 311 1315 612 556 448 939 1101 1060 1806 39 234 41 338 38
1997 -4 1452 -6 1605 -21 1710 -54 350 -137 618 -288 920 -154 308 -314 528
-568 780 -506 504 -1156 802 -1875 860 -156 12 -3112 11 -3261 -1z m3322
-1327 c614 -118 1106 -536 1292 -1097 46 -140 66 -231 80 -374 15 -142 15
-2990 0 -3132 -20 -206 -68 -376 -154 -554 -231 -477 -676 -813 -1216 -917
-113 -21 -122 -22 -1579 -25 -1524 -4 -1655 -2 -1838 37 -514 109 -943 442
-1167 905 -86 178 -134 348 -154 554 -15 138 -15 2983 -1 3136 12 125 55 312
100 430 222 577 778 994 1405 1054 50 5 772 8 1605 7 1505 -2 1516 -2 1627
-24z"/>
<path d="M28347 31234 c-403 -73 -707 -352 -820 -752 -22 -76 -22 -85 -25
-1066 -3 -1088 -3 -1078 58 -1248 110 -305 378 -545 705 -636 l100 -27 1010 0
1010 0 99 27 c371 103 641 373 739 742 22 81 22 86 22 1101 0 1015 0 1020 -22
1101 -50 188 -134 335 -268 470 -132 133 -282 220 -473 272 l-97 27 -980 2
c-814 1 -993 -1 -1058 -13z"/>
<path d="M12826 28739 c-115 -28 -233 -129 -289 -246 l-32 -68 0 -301 0 -300
37 -75 c46 -93 122 -168 215 -212 l68 -32 301 0 300 0 75 37 c93 46 168 122
212 215 l32 68 0 301 0 300 -37 75 c-46 93 -122 168 -215 212 l-68 32 -280 2
c-154 1 -297 -3 -319 -8z"/>
<path d="M12826 26239 c-115 -28 -233 -129 -289 -246 l-32 -68 0 -301 0 -300
37 -75 c46 -93 122 -168 215 -212 l68 -32 301 0 300 0 75 37 c93 46 168 122
212 215 l32 68 0 301 0 300 -37 75 c-46 93 -122 168 -215 212 l-68 32 -280 2
c-154 1 -297 -3 -319 -8z"/>
<path d="M15326 26239 c-115 -28 -233 -129 -289 -246 l-32 -68 0 -301 0 -300
37 -75 c46 -93 122 -168 215 -212 l68 -32 301 0 300 0 75 37 c93 46 168 122
212 215 l32 68 0 301 0 300 -37 75 c-46 93 -122 168 -215 212 l-68 32 -280 2
c-154 1 -297 -3 -319 -8z"/>
<path d="M14076 24989 c-115 -28 -233 -129 -289 -246 l-32 -68 -3 -462 -3
-463 -3587 -2 -3588 -3 -75 -37 c-93 -46 -168 -122 -212 -215 l-32 -68 -3
-1087 -2 -1088 -1250 0 -1250 0 -2 1088 -3 1088 -37 75 c-46 93 -122 168 -215
212 l-68 32 -300 0 -300 0 -68 -32 c-93 -44 -169 -119 -215 -212 l-37 -75 0
-2176 0 -2176 37 -75 c46 -93 122 -168 215 -212 l68 -32 300 0 300 0 68 32
c93 44 169 119 215 212 l37 75 3 463 3 463 1712 2 1712 3 68 32 c93 44 169
119 215 212 l37 75 3 1088 2 1088 625 0 625 0 2 -1088 3 -1088 37 -75 c46 -93
122 -168 215 -212 l68 -32 1088 -3 1087 -2 0 -625 0 -624 -463 -3 -463 -3 -75
-37 c-93 -46 -168 -122 -212 -215 l-32 -68 0 -301 0 -300 37 -75 c46 -93 122
-168 215 -212 l68 -32 925 0 925 0 68 32 c93 44 169 119 215 212 l37 75 3 463
3 463 1087 2 1088 3 75 37 c93 46 168 122 212 215 l32 68 0 301 0 300 -37 75
c-46 93 -122 168 -215 212 l-68 32 -462 3 -462 3 -3 463 -3 462 -37 75 c-46
93 -122 168 -215 212 l-68 32 -1712 3 -1713 2 0 625 0 625 1875 0 1874 0 3
-463 3 -463 37 -75 c46 -93 122 -168 215 -212 l68 -32 300 0 300 0 68 32 c93
44 169 119 215 212 l37 75 3 463 3 463 1087 2 1088 3 75 37 c93 46 168 122
212 215 l32 68 0 300 0 300 -32 68 c-44 93 -119 169 -212 215 l-75 37 -1088 3
-1087 2 -3 463 -3 463 -37 75 c-46 93 -122 168 -215 212 l-68 32 -280 2 c-154
1 -297 -3 -319 -8z"/>
<path d="M19076 24989 c-115 -28 -233 -129 -289 -246 l-32 -68 0 -301 0 -300
37 -75 c46 -93 122 -168 215 -212 l68 -32 301 0 300 0 75 37 c93 46 168 122
212 215 l32 68 0 301 0 300 -37 75 c-46 93 -122 168 -215 212 l-68 32 -280 2
c-154 1 -297 -3 -319 -8z"/>
<path d="M20326 23739 c-114 -27 -233 -129 -289 -246 l-32 -68 0 -301 0 -300
37 -75 c46 -93 122 -168 215 -212 l68 -32 463 -3 462 -3 0 -624 0 -624 -463
-3 -463 -3 -75 -37 c-93 -46 -168 -122 -212 -215 l-32 -68 0 -301 0 -300 37
-75 c46 -93 122 -168 215 -212 l68 -32 1088 -3 1087 -2 0 -625 0 -624 -463 -3
-463 -3 -75 -37 c-93 -46 -168 -122 -212 -215 l-32 -68 -3 -462 -3 -462 -463
-3 -462 -3 -75 -37 c-93 -46 -168 -122 -212 -215 l-32 -68 0 -926 0 -925 37
-75 c46 -93 122 -168 215 -212 l68 -32 462 -3 462 -3 3 -463 3 -462 37 -75
c46 -93 122 -168 215 -212 l68 -32 300 0 300 0 68 32 c93 44 169 119 215 212
l37 75 3 463 3 463 624 0 625 0 0 -625 0 -624 -462 -3 -463 -3 -68 -32 c-93
-44 -169 -119 -215 -212 l-37 -75 -3 -1713 -2 -1713 -1250 0 -1250 0 -2 1713
-3 1713 -37 75 c-46 93 -122 168 -215 212 l-68 32 -926 0 -925 0 -75 -37 c-93
-46 -168 -122 -212 -215 l-32 -68 -3 -462 -3 -463 -624 0 -625 0 0 625 0 624
463 3 462 3 68 32 c93 44 169 119 215 212 l37 75 3 462 3 463 462 3 462 3 68
32 c93 44 169 119 215 212 l37 75 0 301 0 301 -37 75 c-46 93 -122 168 -215
212 l-68 32 -925 0 -925 0 -68 -32 c-93 -44 -169 -119 -215 -212 l-37 -75 -3
-463 -3 -463 -1087 -2 -1087 -3 -68 -32 c-93 -44 -169 -119 -215 -212 l-37
-75 0 -301 0 -301 37 -75 c46 -93 122 -168 215 -212 l68 -32 463 -3 462 -3 0
-624 0 -625 -1088 -2 -1088 -3 -75 -37 c-93 -46 -168 -122 -212 -215 l-32 -68
0 -2800 0 -2800 32 -68 c44 -93 119 -169 212 -215 l75 -37 300 0 301 0 68 32
c93 44 169 119 215 212 l37 75 3 462 3 463 462 3 462 3 68 32 c93 44 169 119
215 212 l37 75 0 925 0 926 -32 68 c-44 93 -119 169 -212 215 l-75 37 -463 3
-463 3 0 624 0 625 625 0 624 0 3 -462 3 -463 32 -68 c44 -93 119 -169 212
-215 l75 -37 926 0 926 0 75 37 c93 46 168 122 212 215 l32 68 3 463 3 462
624 0 625 0 0 -625 0 -624 -463 -3 -463 -3 -75 -37 c-93 -46 -168 -122 -212
-215 l-32 -68 0 -926 0 -925 37 -75 c46 -93 122 -168 215 -212 l68 -32 300 0
300 0 68 32 c93 44 169 119 215 212 l37 75 3 463 3 463 624 0 625 0 2 -1088 3
-1088 37 -75 c46 -93 122 -168 215 -212 l68 -32 925 0 925 0 68 32 c93 44 169
119 215 212 l37 75 3 463 3 463 624 0 625 0 0 -625 0 -624 -462 -3 -463 -3
-68 -32 c-93 -44 -169 -119 -215 -212 l-37 -75 0 -301 0 -301 37 -75 c46 -93
122 -168 215 -212 l68 -32 925 0 925 0 68 32 c93 44 169 119 215 212 l37 75 3
462 3 463 462 3 462 3 68 32 c93 44 169 119 215 212 l37 75 3 463 3 463 1087
2 1088 3 75 37 c93 46 168 122 212 215 l32 68 0 2800 0 2800 -32 68 c-44 93
-119 169 -212 215 l-75 37 -462 3 -463 3 -3 463 -3 462 -37 75 c-46 93 -122
168 -215 212 l-68 32 -1087 3 -1087 2 -3 463 -3 463 -37 75 c-46 93 -122 168
-215 212 l-68 32 -462 3 -463 3 0 1249 0 1249 463 3 463 3 75 37 c93 46 168
122 212 215 l32 68 0 301 0 300 -37 75 c-46 93 -122 168 -215 212 l-68 32
-462 3 -462 3 -3 462 -3 462 -32 68 c-44 93 -119 169 -212 215 l-75 37 -463 3
-463 3 -2 1087 -3 1088 -37 75 c-46 93 -122 168 -215 212 l-68 32 -905 2
c-526 1 -921 -3 -944 -8z m7174 -13114 l0 -1875 -1875 0 -1875 0 0 1875 0
1875 1875 0 1875 0 0 -1875z"/>
<path d="M25326 11239 c-115 -28 -233 -129 -289 -246 l-32 -68 0 -301 0 -300
37 -75 c46 -93 122 -168 215 -212 l68 -32 301 0 300 0 75 37 c93 46 168 122
212 215 l32 68 0 301 0 300 -37 75 c-46 93 -122 168 -215 212 l-68 32 -280 2
c-154 1 -297 -3 -319 -8z"/>
<path d="M24076 23739 c-115 -28 -233 -129 -289 -246 l-32 -68 0 -301 0 -300
37 -75 c46 -93 122 -168 215 -212 l68 -32 301 0 300 0 75 37 c93 46 168 122
212 215 l32 68 0 301 0 300 -37 75 c-46 93 -122 168 -215 212 l-68 32 -280 2
c-154 1 -297 -3 -319 -8z"/>
<path d="M27826 23739 c-115 -28 -233 -129 -289 -246 l-32 -68 0 -1551 0
-1550 37 -75 c46 -93 122 -168 215 -212 l68 -32 462 -3 462 -3 3 -463 3 -462
37 -75 c46 -93 122 -168 215 -212 l68 -32 1712 -3 1712 -2 3 -463 3 -462 32
-68 c44 -93 119 -169 212 -215 l75 -37 301 0 301 0 75 37 c93 46 168 122 212
215 l32 68 0 1551 0 1550 -37 75 c-46 93 -122 168 -215 212 l-68 32 -301 0
-300 0 -75 -37 c-93 -46 -168 -122 -212 -215 l-32 -68 -3 -462 -3 -463 -1249
0 -1250 0 0 625 0 625 1088 2 1088 3 75 37 c93 46 168 122 212 215 l32 68 3
462 3 462 462 3 462 3 68 32 c93 44 169 119 215 212 l37 75 0 301 0 301 -37
75 c-46 93 -122 168 -215 212 l-68 32 -1550 0 -1550 0 -68 -32 c-93 -44 -169
-119 -215 -212 l-37 -75 -3 -463 -3 -463 -624 0 -624 0 -3 463 -3 463 -37 75
c-46 93 -122 168 -215 212 l-68 32 -280 2 c-154 1 -297 -3 -319 -8z"/>
<path d="M15326 21239 c-115 -28 -233 -129 -289 -246 l-32 -68 0 -301 0 -300
37 -75 c46 -93 122 -168 215 -212 l68 -32 301 0 300 0 75 37 c93 46 168 122
212 215 l32 68 0 301 0 300 -37 75 c-46 93 -122 168 -215 212 l-68 32 -280 2
c-154 1 -297 -3 -319 -8z"/>
<path d="M17826 19989 c-115 -28 -233 -129 -289 -246 l-32 -68 -3 -462 -3
-463 -1087 -2 -1088 -3 -75 -37 c-93 -46 -168 -122 -212 -215 l-32 -68 0 -926
0 -925 37 -75 c46 -93 122 -168 215 -212 l68 -32 300 0 300 0 68 32 c93 44
169 119 215 212 l37 75 3 463 3 463 1087 2 1088 3 75 37 c93 46 168 122 212
215 l32 68 0 926 0 925 -37 75 c-46 93 -122 168 -215 212 l-68 32 -280 2
c-154 1 -297 -3 -319 -8z"/>
<path d="M26576 19989 c-115 -28 -233 -129 -289 -246 l-32 -68 0 -301 0 -300
37 -75 c46 -93 122 -168 215 -212 l68 -32 301 0 300 0 75 37 c93 46 168 122
212 215 l32 68 0 301 0 300 -37 75 c-46 93 -122 168 -215 212 l-68 32 -280 2
c-154 1 -297 -3 -319 -8z"/>
<path d="M4076 18739 c-115 -28 -233 -129 -289 -246 l-32 -68 0 -301 0 -300
37 -75 c46 -93 122 -168 215 -212 l68 -32 301 0 300 0 75 37 c93 46 168 122
212 215 l32 68 0 301 0 300 -37 75 c-46 93 -122 168 -215 212 l-68 32 -280 2
c-154 1 -297 -3 -319 -8z"/>
<path d="M6576 18739 c-114 -27 -233 -129 -289 -246 l-32 -68 0 -301 0 -300
37 -75 c46 -93 122 -168 215 -212 l68 -32 925 0 925 0 68 32 c93 44 169 119
215 212 l37 75 0 301 0 301 -37 75 c-46 93 -122 168 -215 212 l-68 32 -905 2
c-526 1 -921 -3 -944 -8z"/>
<path d="M25326 18739 c-115 -28 -233 -129 -289 -246 l-32 -68 0 -301 0 -300
37 -75 c46 -93 122 -168 215 -212 l68 -32 301 0 300 0 75 37 c93 46 168 122
212 215 l32 68 0 301 0 300 -37 75 c-46 93 -122 168 -215 212 l-68 32 -280 2
c-154 1 -297 -3 -319 -8z"/>
<path d="M2826 17489 c-115 -28 -233 -129 -289 -246 l-32 -68 0 -2176 0 -2175
37 -75 c46 -93 122 -168 215 -212 l68 -32 300 0 300 0 68 32 c93 44 169 119
215 212 l37 75 3 1088 2 1087 463 3 463 3 75 37 c93 46 168 122 212 215 l32
68 0 301 0 300 -37 75 c-46 93 -122 168 -215 212 l-68 32 -462 3 -462 3 -3
463 -3 462 -37 75 c-46 93 -122 168 -215 212 l-68 32 -280 2 c-154 1 -297 -3
-319 -8z"/>
<path d="M12826 17489 c-115 -28 -233 -129 -289 -246 l-32 -68 0 -925 0 -925
32 -68 c44 -93 119 -169 212 -215 l75 -37 301 0 301 0 75 37 c93 46 168 122
212 215 l32 68 0 926 0 925 -37 75 c-46 93 -122 168 -215 212 l-68 32 -280 2
c-154 1 -297 -3 -319 -8z"/>
<path d="M27826 17489 c-115 -28 -233 -129 -289 -246 l-32 -68 0 -925 0 -925
32 -68 c44 -93 119 -169 212 -215 l75 -37 462 -3 463 -3 3 -462 3 -462 32 -68
c44 -93 119 -169 212 -215 l75 -37 463 -3 463 -3 2 -1087 3 -1087 32 -68 c44
-93 119 -169 212 -215 l75 -37 926 0 926 0 75 37 c93 46 168 122 212 215 l32
68 0 926 0 925 -37 75 c-46 93 -122 168 -215 212 l-68 32 -462 3 -463 3 0 624
0 625 625 0 624 0 3 -462 3 -463 32 -68 c44 -93 119 -169 212 -215 l75 -37
300 0 301 0 68 32 c93 44 169 119 215 212 l37 75 0 926 0 926 -37 75 c-46 93
-122 168 -215 212 l-68 32 -462 3 -462 3 -3 462 -3 462 -32 68 c-44 93 -119
169 -212 215 l-75 37 -301 0 -301 0 -75 -37 c-93 -46 -168 -122 -212 -215
l-32 -68 -3 -462 -3 -463 -1249 0 -1249 0 -3 463 -3 463 -37 75 c-46 93 -122
168 -215 212 l-68 32 -280 2 c-154 1 -297 -3 -319 -8z"/>
<path d="M6576 16239 c-114 -27 -233 -129 -289 -246 l-32 -68 -3 -462 -3 -462
-462 -3 -462 -3 -68 -32 c-93 -44 -169 -119 -215 -212 l-37 -75 0 -926 0 -926
37 -75 c46 -93 122 -168 215 -212 l68 -32 925 0 925 0 68 32 c93 44 169 119
215 212 l37 75 3 1088 2 1088 1713 2 1713 3 75 37 c93 46 168 122 212 215 l32
68 0 300 0 300 -32 68 c-44 93 -119 169 -212 215 l-75 37 -2155 2 c-1279 0
-2172 -3 -2195 -8z"/>
<path d="M11576 14989 c-115 -28 -233 -129 -289 -246 l-32 -68 -3 -462 -3
-462 -462 -3 -462 -3 -68 -32 c-93 -44 -169 -119 -215 -212 l-37 -75 0 -300 0
-301 32 -68 c44 -93 119 -169 212 -215 l75 -37 926 0 926 0 75 37 c93 46 168
122 212 215 l32 68 0 926 0 925 -37 75 c-46 93 -122 168 -215 212 l-68 32
-280 2 c-154 1 -297 -3 -319 -8z"/>
<path d="M5235 11239 c-588 -50 -1155 -276 -1625 -649 -134 -106 -364 -336
-468 -468 -313 -395 -518 -853 -601 -1343 -41 -236 -42 -338 -39 -1999 4
-1758 1 -1651 68 -1959 91 -414 306 -861 577 -1200 104 -130 334 -360 463
-461 417 -330 914 -548 1424 -625 230 -34 361 -36 1936 -33 1661 5 1610 3
1865 53 476 94 942 311 1315 612 556 448 939 1101 1060 1806 39 234 41 338 38
1997 -4 1452 -6 1605 -21 1710 -54 350 -137 618 -288 920 -154 308 -314 528
-568 780 -506 504 -1156 802 -1875 860 -156 12 -3112 11 -3261 -1z m3322
-1327 c614 -118 1106 -536 1292 -1097 46 -140 66 -231 80 -374 15 -142 15
-2990 0 -3132 -20 -206 -68 -376 -154 -554 -231 -477 -676 -813 -1216 -917
-113 -21 -122 -22 -1579 -25 -1524 -4 -1655 -2 -1838 37 -514 109 -943 442
-1167 905 -86 178 -134 348 -154 554 -15 138 -15 2983 -1 3136 12 125 55 312
100 430 222 577 778 994 1405 1054 50 5 772 8 1605 7 1505 -2 1516 -2 1627
-24z"/>
<path d="M5847 8734 c-403 -73 -707 -352 -820 -752 -22 -76 -22 -85 -25 -1066
-3 -1088 -3 -1078 58 -1248 110 -305 378 -545 705 -636 l100 -27 1010 0 1010
0 99 27 c371 103 641 373 739 742 22 81 22 86 22 1101 0 1015 0 1020 -22 1101
-50 188 -134 335 -268 470 -132 133 -282 220 -473 272 l-97 27 -980 2 c-814 1
-993 -1 -1058 -13z"/>
<path d="M32826 11239 c-115 -28 -233 -129 -289 -246 l-32 -68 -3 -462 -3
-462 -462 -3 -462 -3 -68 -32 c-93 -44 -169 -119 -215 -212 l-37 -75 0 -300 0
-301 32 -68 c44 -93 119 -169 212 -215 l75 -37 926 0 926 0 75 37 c93 46 168
122 212 215 l32 68 0 926 0 925 -37 75 c-46 93 -122 168 -215 212 l-68 32
-280 2 c-154 1 -297 -3 -319 -8z"/>
<path d="M16576 7489 c-115 -28 -233 -129 -289 -246 l-32 -68 -3 -462 -3 -462
-462 -3 -462 -3 -68 -32 c-93 -44 -169 -119 -215 -212 l-37 -75 0 -926 0 -926
37 -75 c46 -93 122 -168 215 -212 l68 -32 300 0 300 0 68 32 c93 44 169 119
215 212 l37 75 3 463 3 463 1087 2 1088 3 75 37 c93 46 168 122 212 215 l32
68 0 301 0 300 -37 75 c-46 93 -122 168 -215 212 l-68 32 -462 3 -462 3 -3
463 -3 462 -37 75 c-46 93 -122 168 -215 212 l-68 32 -280 2 c-154 1 -297 -3
-319 -8z"/>
<path d="M31576 7489 c-114 -27 -233 -129 -289 -246 l-32 -68 -3 -462 -3 -463
-1712 -2 -1713 -3 -75 -37 c-93 -46 -168 -122 -212 -215 l-32 -68 -3 -462 -3
-463 -1087 -2 -1087 -3 -68 -32 c-93 -44 -169 -119 -215 -212 l-37 -75 0 -926
0 -926 37 -75 c46 -93 122 -168 215 -212 l68 -32 300 0 300 0 68 32 c93 44
169 119 215 212 l37 75 3 463 3 463 1087 2 1088 3 75 37 c93 46 168 122 212
215 l32 68 3 463 3 462 624 0 624 0 3 -463 3 -463 37 -75 c46 -93 122 -168
215 -212 l68 -32 1087 -3 1087 -2 3 -463 3 -463 37 -75 c46 -93 122 -168 215
-212 l68 -32 300 0 300 0 68 32 c93 44 169 119 215 212 l37 75 0 2176 0 2176
-37 75 c-46 93 -122 168 -215 212 l-68 32 -905 2 c-526 1 -921 -3 -944 -8z"/>
<path d="M20326 4989 c-115 -28 -233 -129 -289 -246 l-32 -68 0 -301 0 -300
37 -75 c46 -93 122 -168 215 -212 l68 -32 301 0 300 0 75 37 c93 46 168 122
212 215 l32 68 0 301 0 300 -37 75 c-46 93 -122 168 -215 212 l-68 32 -280 2
c-154 1 -297 -3 -319 -8z"/>
<path d="M12826 3739 c-115 -28 -233 -129 -289 -246 l-32 -68 0 -301 0 -300
37 -75 c46 -93 122 -168 215 -212 l68 -32 301 0 300 0 75 37 c93 46 168 122
212 215 l32 68 0 301 0 300 -37 75 c-46 93 -122 168 -215 212 l-68 32 -280 2
c-154 1 -297 -3 -319 -8z"/>
<path d="M16576 3739 c-115 -28 -233 -129 -289 -246 l-32 -68 0 -301 0 -300
37 -75 c46 -93 122 -168 215 -212 l68 -32 301 0 300 0 75 37 c93 46 168 122
212 215 l32 68 0 301 0 300 -37 75 c-46 93 -122 168 -215 212 l-68 32 -280 2
c-154 1 -297 -3 -319 -8z"/>
<path d="M21576 3739 c-114 -27 -233 -129 -289 -246 l-32 -68 0 -301 0 -300
37 -75 c46 -93 122 -168 215 -212 l68 -32 925 0 925 0 68 32 c93 44 169 119
215 212 l37 75 0 301 0 301 -37 75 c-46 93 -122 168 -215 212 l-68 32 -905 2
c-526 1 -921 -3 -944 -8z"/>
<path d="M29076 3739 c-115 -28 -233 -129 -289 -246 l-32 -68 0 -301 0 -300
37 -75 c46 -93 122 -168 215 -212 l68 -32 301 0 300 0 75 37 c93 46 168 122
212 215 l32 68 0 301 0 300 -37 75 c-46 93 -122 168 -215 212 l-68 32 -280 2
c-154 1 -297 -3 -319 -8z"/>
</g>
</svg>
